<svg xmlns="http://www.w3.org/2000/svg" viewBox="0 0 1440 900" width="1440" height="900" font-family="Segoe UI, Pretendard, 'Apple SD Gothic Neo', 'Malgun Gothic', sans-serif">
  <defs>
    <linearGradient id="sidebarBg" x1="0" y1="0" x2="0" y2="1">
      <stop offset="0" stop-color="#0F172A"/>
      <stop offset="1" stop-color="#0B1220"/>
    </linearGradient>
    <linearGradient id="brandBtn" x1="0" y1="0" x2="0" y2="1">
      <stop offset="0" stop-color="#4F46E5"/>
      <stop offset="1" stop-color="#4338CA"/>
    </linearGradient>
    <filter id="cardShadow" x="-2%" y="-2%" width="104%" height="108%">
      <feDropShadow dx="0" dy="2" stdDeviation="6" flood-color="#000000" flood-opacity="0.35"/>
    </filter>
  </defs>

  <rect width="1440" height="900" fill="#0F172A"/>

  <!-- Sidebar -->
  <rect x="0" y="0" width="260" height="900" fill="url(#sidebarBg)"/>
  <line x1="260" y1="0" x2="260" y2="900" stroke="#1F2A44"/>

  <rect x="22" y="24" width="36" height="36" rx="10" fill="#4F46E5"/>
  <text x="40" y="49" text-anchor="middle" fill="#fff" font-size="18" font-weight="700">E</text>
  <text x="70" y="42" fill="#F8FAFC" font-size="18" font-weight="700">ErpShell</text>
  <text x="70" y="58" fill="#64748B" font-size="11">Enterprise Suite</text>

  <text x="22" y="100" fill="#64748B" font-size="11" font-weight="600">OVERVIEW</text>

  <rect x="10" y="112" width="240" height="40" rx="10" fill="#4F46E5"/>
  <g stroke="#FFFFFF" stroke-width="1.6" fill="none" stroke-linecap="round" stroke-linejoin="round">
    <path d="M27 126h6v6h-6zM27 138h6v6h-6zM39 126h6v18h-6z"/>
  </g>
  <text x="60" y="138" fill="#FFFFFF" font-size="14" font-weight="600">대시보드</text>

  <text x="22" y="180" fill="#64748B" font-size="11" font-weight="600">OPERATIONS</text>

  <g font-size="14" font-weight="500" fill="#CBD5E1">
    <g transform="translate(0, 192)">
      <g transform="translate(26, 12)" stroke="#CBD5E1" stroke-width="1.6" fill="none" stroke-linecap="round" stroke-linejoin="round">
        <circle cx="3" cy="14" r="1.4"/>
        <circle cx="14" cy="14" r="1.4"/>
        <path d="M0 0h2l2 11h11l2-7H4"/>
      </g>
      <text x="60" y="26">영업관리</text>
    </g>

    <g transform="translate(0, 234)">
      <g transform="translate(26, 12)" stroke="#CBD5E1" stroke-width="1.6" fill="none" stroke-linecap="round" stroke-linejoin="round">
        <path d="M2 5h16l-1.4 11a2 2 0 0 1-2 1.6H5.4a2 2 0 0 1-2-1.6L2 5z"/>
        <path d="M6 5V3a4 4 0 0 1 8 0v2"/>
      </g>
      <text x="60" y="26">구매관리</text>
    </g>

    <g transform="translate(0, 276)">
      <g transform="translate(26, 13)" stroke="#CBD5E1" stroke-width="1.6" fill="none" stroke-linecap="round" stroke-linejoin="round">
        <path d="M0 4l9-4 9 4-9 4-9-4zM0 9l9 4 9-4M0 14l9 4 9-4"/>
      </g>
      <text x="60" y="26">재고관리</text>
    </g>

    <text x="22" y="338" fill="#64748B" font-size="11" font-weight="600">MANAGEMENT</text>

    <g transform="translate(0, 350)">
      <g transform="translate(26, 13)" stroke="#CBD5E1" stroke-width="1.6" fill="none" stroke-linecap="round" stroke-linejoin="round">
        <circle cx="9" cy="6" r="3.5"/>
        <path d="M2 18a7 7 0 0 1 14 0"/>
      </g>
      <text x="60" y="26">인사관리</text>
    </g>

    <g transform="translate(0, 392)">
      <g transform="translate(26, 14)" stroke="#CBD5E1" stroke-width="1.6" fill="none" stroke-linecap="round" stroke-linejoin="round">
        <rect x="0" y="0" width="18" height="3"/>
        <rect x="0" y="7" width="18" height="3"/>
        <rect x="0" y="14" width="12" height="3"/>
      </g>
      <text x="60" y="26">회계관리</text>
    </g>

    <g transform="translate(0, 434)">
      <g transform="translate(26, 13)" stroke="#CBD5E1" stroke-width="1.6" fill="none" stroke-linecap="round" stroke-linejoin="round">
        <path d="M0 16V2M0 16h18M4 12V8M8 12V4M12 12V6M16 12V3"/>
      </g>
      <text x="60" y="26">리포트</text>
    </g>

    <text x="22" y="496" fill="#64748B" font-size="11" font-weight="600">SYSTEM</text>

    <g transform="translate(0, 508)">
      <g transform="translate(26, 12)" stroke="#CBD5E1" stroke-width="1.6" fill="none" stroke-linecap="round" stroke-linejoin="round">
        <circle cx="8" cy="8" r="3"/>
        <path d="M14.4 8l1-1-1.4-2.4-1.4.4a8 8 0 0 0-1.2-.7l-.4-1.5H7l-.4 1.5a8 8 0 0 0-1.2.7l-1.4-.4-1.4 2.4 1 1L1.6 8l1 1L1.6 11l1.4 2.4 1.4-.4a8 8 0 0 0 1.2.7l.4 1.5H10l.4-1.5a8 8 0 0 0 1.2-.7l1.4.4 1.4-2.4-1-1z"/>
      </g>
      <text x="60" y="26">설정</text>
    </g>
  </g>

  <rect x="14" y="800" width="232" height="64" rx="12" fill="#111B30"/>
  <circle cx="44" cy="832" r="18" fill="#06B6D4"/>
  <text x="44" y="838" text-anchor="middle" fill="#fff" font-size="14" font-weight="700">K</text>
  <text x="72" y="827" fill="#F8FAFC" font-size="13" font-weight="600">김도경</text>
  <text x="72" y="843" fill="#64748B" font-size="11">관리자</text>
  <rect x="200" y="814" width="36" height="36" rx="8" fill="#F59E0B"/>
  <g transform="translate(210, 824)" stroke="#0F172A" stroke-width="1.8" fill="#F59E0B" stroke-linecap="round" stroke-linejoin="round">
    <circle cx="8" cy="8" r="3.6" fill="#F59E0B"/>
    <path d="M8 1V0M8 16v-1M1 8H0M16 8h-1M2.5 2.5l-.7-.7M13.5 13.5l-.7-.7M2.5 13.5l-.7.7M13.5 2.5l-.7.7" stroke-width="1.6" stroke="#0F172A"/>
  </g>

  <!-- Top bar -->
  <rect x="260" y="0" width="1180" height="64" fill="#0B1220"/>
  <line x1="260" y1="64" x2="1440" y2="64" stroke="#1F2A44"/>

  <rect x="284" y="13" width="420" height="38" rx="10" fill="#0F172A" stroke="#1F2A44"/>
  <g transform="translate(298, 24)" stroke="#64748B" stroke-width="1.6" fill="none" stroke-linecap="round" stroke-linejoin="round">
    <circle cx="6" cy="6" r="5"/>
    <path d="M13 13l-3-3"/>
  </g>
  <text x="322" y="37" fill="#64748B" font-size="13">주문, 고객, 품목, 직원 검색…</text>
  <rect x="652" y="22" width="46" height="20" rx="4" fill="#1E293B"/>
  <text x="675" y="36" text-anchor="middle" fill="#94A3B8" font-size="10">Ctrl + K</text>

  <rect x="1156" y="14" width="110" height="36" rx="10" fill="#0B1220" stroke="#1F2A44"/>
  <g transform="translate(1170, 26)" stroke="#F8FAFC" stroke-width="1.8" fill="none" stroke-linecap="round" stroke-linejoin="round">
    <path d="M6 0v12M0 6h12"/>
  </g>
  <text x="1192" y="37" fill="#F8FAFC" font-size="13" font-weight="500">새로 만들기</text>

  <rect x="1278" y="14" width="36" height="36" rx="8" fill="transparent"/>
  <g transform="translate(1287, 23)" stroke="#CBD5E1" stroke-width="1.6" fill="none" stroke-linecap="round" stroke-linejoin="round">
    <path d="M0 13h18l-1.4-1.4A2 2 0 0 1 16 10.2V7a7 7 0 0 0-14 0v3.2c0 .5-.2 1-.6 1.4L0 13z" transform="scale(0.9)"/>
    <path d="M6 14.5a3 3 0 0 0 6 0" transform="scale(0.9)"/>
  </g>
  <circle cx="1306" cy="20" r="4" fill="#EF4444"/>

  <line x1="1325" y1="22" x2="1325" y2="42" stroke="#1F2A44"/>

  <circle cx="1356" cy="32" r="18" fill="#06B6D4"/>
  <text x="1356" y="38" text-anchor="middle" fill="#fff" font-size="14" font-weight="700">K</text>

  <!-- Page header -->
  <text x="292" y="116" fill="#F8FAFC" font-size="28" font-weight="600">대시보드</text>
  <text x="292" y="142" fill="#CBD5E1" font-size="13">오늘의 주요 지표와 활동을 확인하세요.</text>

  <rect x="1180" y="100" width="100" height="38" rx="10" fill="#0B1220" stroke="#1F2A44"/>
  <text x="1230" y="124" text-anchor="middle" fill="#F8FAFC" font-size="13" font-weight="500">내보내기</text>

  <rect x="1288" y="100" width="120" height="38" rx="10" fill="url(#brandBtn)"/>
  <text x="1348" y="125" text-anchor="middle" fill="#FFFFFF" font-size="13" font-weight="600">보고서 생성</text>

  <!-- KPI cards -->
  <g filter="url(#cardShadow)">
    <g transform="translate(292, 168)">
      <rect width="262" height="124" rx="14" fill="#0B1220" stroke="#1F2A44"/>
      <text x="20" y="34" fill="#CBD5E1" font-size="13">월 매출</text>
      <rect x="208" y="16" width="34" height="34" rx="10" fill="#111B30"/>
      <g transform="translate(217, 25)" stroke="#06B6D4" stroke-width="1.6" fill="none" stroke-linecap="round" stroke-linejoin="round">
        <circle cx="2" cy="14" r="1.4"/>
        <circle cx="13" cy="14" r="1.4"/>
        <path d="M0 0h2l2 11h11l2-7H4"/>
      </g>
      <text x="20" y="74" fill="#F8FAFC" font-size="22" font-weight="700">₩ 482,309,000</text>
      <rect x="20" y="90" width="74" height="20" rx="999" fill="#111B30"/>
      <path d="M30 100v-6m0 0l-3 3m3-3l3 3" stroke="#10B981" stroke-width="2" fill="none" stroke-linecap="round" stroke-linejoin="round"/>
      <text x="42" y="104" fill="#10B981" font-size="11" font-weight="700">+12.4%</text>
      <text x="104" y="104" fill="#64748B" font-size="11">전월 대비</text>
    </g>

    <g transform="translate(570, 168)">
      <rect width="262" height="124" rx="14" fill="#0B1220" stroke="#1F2A44"/>
      <text x="20" y="34" fill="#CBD5E1" font-size="13">신규 주문</text>
      <rect x="208" y="16" width="34" height="34" rx="10" fill="#111B30"/>
      <g transform="translate(216, 23)" stroke="#06B6D4" stroke-width="1.6" fill="none" stroke-linecap="round" stroke-linejoin="round">
        <path d="M2 5h16l-1.4 11a2 2 0 0 1-2 1.6H5.4a2 2 0 0 1-2-1.6L2 5z"/>
        <path d="M6 5V3a4 4 0 0 1 8 0v2"/>
      </g>
      <text x="20" y="74" fill="#F8FAFC" font-size="22" font-weight="700">1,284 건</text>
      <rect x="20" y="90" width="64" height="20" rx="999" fill="#111B30"/>
      <path d="M30 100v-6m0 0l-3 3m3-3l3 3" stroke="#10B981" stroke-width="2" fill="none" stroke-linecap="round" stroke-linejoin="round"/>
      <text x="42" y="104" fill="#10B981" font-size="11" font-weight="700">+8.1%</text>
      <text x="94" y="104" fill="#64748B" font-size="11">전월 대비</text>
    </g>

    <g transform="translate(848, 168)">
      <rect width="262" height="124" rx="14" fill="#0B1220" stroke="#1F2A44"/>
      <text x="20" y="34" fill="#CBD5E1" font-size="13">재고 회전율</text>
      <rect x="208" y="16" width="34" height="34" rx="10" fill="#111B30"/>
      <g transform="translate(217, 24)" stroke="#06B6D4" stroke-width="1.6" fill="none" stroke-linecap="round" stroke-linejoin="round">
        <path d="M0 4l9-4 9 4-9 4-9-4zM0 9l9 4 9-4M0 14l9 4 9-4"/>
      </g>
      <text x="20" y="74" fill="#F8FAFC" font-size="22" font-weight="700">6.3 회</text>
      <rect x="20" y="90" width="60" height="20" rx="999" fill="#111B30"/>
      <path d="M30 94v6m0 0l-3-3m3 3l3-3" stroke="#EF4444" stroke-width="2" fill="none" stroke-linecap="round" stroke-linejoin="round"/>
      <text x="42" y="104" fill="#EF4444" font-size="11" font-weight="700">-2.1%</text>
      <text x="90" y="104" fill="#64748B" font-size="11">전월 대비</text>
    </g>

    <g transform="translate(1126, 168)">
      <rect width="282" height="124" rx="14" fill="#0B1220" stroke="#1F2A44"/>
      <text x="20" y="34" fill="#CBD5E1" font-size="13">미수금</text>
      <rect x="228" y="16" width="34" height="34" rx="10" fill="#111B30"/>
      <g transform="translate(236, 25)" stroke="#06B6D4" stroke-width="1.6" fill="none" stroke-linecap="round" stroke-linejoin="round">
        <rect x="0" y="0" width="18" height="3"/>
        <rect x="0" y="6" width="18" height="3"/>
        <rect x="0" y="12" width="12" height="3"/>
      </g>
      <text x="20" y="74" fill="#F8FAFC" font-size="22" font-weight="700">₩ 38,920,000</text>
      <rect x="20" y="90" width="60" height="20" rx="999" fill="#111B30"/>
      <path d="M30 94v6m0 0l-3-3m3 3l3-3" stroke="#10B981" stroke-width="2" fill="none" stroke-linecap="round" stroke-linejoin="round"/>
      <text x="42" y="104" fill="#10B981" font-size="11" font-weight="700">-4.7%</text>
      <text x="90" y="104" fill="#64748B" font-size="11">전월 대비</text>
    </g>
  </g>

  <!-- Recent orders card -->
  <g filter="url(#cardShadow)">
    <g transform="translate(292, 320)">
      <rect width="760" height="488" rx="14" fill="#0B1220" stroke="#1F2A44"/>
      <text x="20" y="40" fill="#F8FAFC" font-size="18" font-weight="600">최근 주문</text>
      <text x="20" y="60" fill="#64748B" font-size="11">이번 주 등록된 영업 주문 내역</text>

      <rect x="660" y="22" width="86" height="30" rx="10" fill="#0B1220" stroke="#1F2A44"/>
      <text x="703" y="42" text-anchor="middle" fill="#F8FAFC" font-size="12" font-weight="500">전체 보기</text>

      <line x1="20" y1="98" x2="740" y2="98" stroke="#172033"/>
      <g fill="#64748B" font-size="11" font-weight="600">
        <text x="28" y="90">주문번호</text>
        <text x="170" y="90">고객사</text>
        <text x="350" y="90">품목</text>
        <text x="540" y="90">수량</text>
        <text x="600" y="90">금액</text>
        <text x="700" y="90">상태</text>
      </g>

      <g font-size="13" fill="#F8FAFC">
        <g transform="translate(0,118)">
          <text x="28" y="0" font-family="Cascadia Mono, Consolas, monospace">SO-2026-0512</text>
          <text x="170" y="0">(주)한빛전자</text>
          <text x="350" y="0">프리미엄 모니터 27"</text>
          <text x="540" y="0">12</text>
          <text x="600" y="0">₩ 4,320,000</text>
          <g transform="translate(688, -12)">
            <rect width="56" height="22" rx="999" fill="#111B30"/>
            <circle cx="10" cy="11" r="3" fill="#3B82F6"/>
            <text x="20" y="15" fill="#3B82F6" font-size="11" font-weight="700">확정</text>
          </g>
        </g>
        <line x1="20" y1="142" x2="740" y2="142" stroke="#172033"/>

        <g transform="translate(0,162)">
          <text x="28" y="0" font-family="Cascadia Mono, Consolas, monospace">SO-2026-0513</text>
          <text x="170" y="0">스마트솔루션</text>
          <text x="350" y="0">무선 키보드 K7</text>
          <text x="540" y="0">80</text>
          <text x="600" y="0">₩ 2,400,000</text>
          <g transform="translate(688, -12)">
            <rect width="64" height="22" rx="999" fill="#111B30"/>
            <circle cx="10" cy="11" r="3" fill="#3B82F6"/>
            <text x="20" y="15" fill="#3B82F6" font-size="11" font-weight="700">출고대기</text>
          </g>
        </g>
        <line x1="20" y1="186" x2="740" y2="186" stroke="#172033"/>

        <g transform="translate(0,206)">
          <text x="28" y="0" font-family="Cascadia Mono, Consolas, monospace">SO-2026-0514</text>
          <text x="170" y="0">코어테크</text>
          <text x="350" y="0">엔터프라이즈 SSD 2TB</text>
          <text x="540" y="0">30</text>
          <text x="600" y="0">₩ 9,900,000</text>
          <g transform="translate(688, -12)">
            <rect width="56" height="22" rx="999" fill="#111B30"/>
            <circle cx="10" cy="11" r="3" fill="#F59E0B"/>
            <text x="20" y="15" fill="#F59E0B" font-size="11" font-weight="700">신규</text>
          </g>
        </g>
        <line x1="20" y1="230" x2="740" y2="230" stroke="#172033"/>

        <g transform="translate(0,250)">
          <text x="28" y="0" font-family="Cascadia Mono, Consolas, monospace">SO-2026-0515</text>
          <text x="170" y="0">퓨처랩스</text>
          <text x="350" y="0">도킹 스테이션 X</text>
          <text x="540" y="0">15</text>
          <text x="600" y="0">₩ 3,750,000</text>
          <g transform="translate(688, -12)">
            <rect width="56" height="22" rx="999" fill="#111B30"/>
            <circle cx="10" cy="11" r="3" fill="#3B82F6"/>
            <text x="20" y="15" fill="#3B82F6" font-size="11" font-weight="700">확정</text>
          </g>
        </g>
        <line x1="20" y1="274" x2="740" y2="274" stroke="#172033"/>

        <g transform="translate(0,294)">
          <text x="28" y="0" font-family="Cascadia Mono, Consolas, monospace">SO-2026-0516</text>
          <text x="170" y="0">그린에너지</text>
          <text x="350" y="0">산업용 라우터 R5</text>
          <text x="540" y="0">6</text>
          <text x="600" y="0">₩ 6,120,000</text>
          <g transform="translate(688, -12)">
            <rect width="56" height="22" rx="999" fill="#111B30"/>
            <circle cx="10" cy="11" r="3" fill="#F59E0B"/>
            <text x="20" y="15" fill="#F59E0B" font-size="11" font-weight="700">신규</text>
          </g>
        </g>
      </g>
    </g>
  </g>

  <!-- Side card -->
  <g filter="url(#cardShadow)">
    <g transform="translate(1068, 320)">
      <rect width="340" height="488" rx="14" fill="#0B1220" stroke="#1F2A44"/>
      <text x="20" y="40" fill="#F8FAFC" font-size="18" font-weight="600">이번 달 진행 상황</text>
      <text x="20" y="60" fill="#64748B" font-size="11">목표 대비 실적 요약</text>

      <text x="20" y="100" fill="#CBD5E1" font-size="13">매출 목표</text>
      <text x="300" y="100" text-anchor="end" fill="#F8FAFC" font-size="13" font-weight="600">78%</text>
      <rect x="20" y="110" width="300" height="6" rx="3" fill="#111B30"/>
      <rect x="20" y="110" width="234" height="6" rx="3" fill="#4F46E5"/>

      <text x="20" y="148" fill="#CBD5E1" font-size="13">수금률</text>
      <text x="300" y="148" text-anchor="end" fill="#F8FAFC" font-size="13" font-weight="600">64%</text>
      <rect x="20" y="158" width="300" height="6" rx="3" fill="#111B30"/>
      <rect x="20" y="158" width="192" height="6" rx="3" fill="#06B6D4"/>

      <text x="20" y="196" fill="#CBD5E1" font-size="13">재고 안전도</text>
      <text x="300" y="196" text-anchor="end" fill="#F8FAFC" font-size="13" font-weight="600">92%</text>
      <rect x="20" y="206" width="300" height="6" rx="3" fill="#111B30"/>
      <rect x="20" y="206" width="276" height="6" rx="3" fill="#10B981"/>

      <rect x="20" y="246" width="300" height="116" rx="12" fill="#111B30"/>
      <text x="36" y="274" fill="#F8FAFC" font-size="13" font-weight="600">요청 처리 대기</text>
      <text x="36" y="296" fill="#64748B" font-size="11">6건의 결재가 승인을 기다리고</text>
      <text x="36" y="312" fill="#64748B" font-size="11">있습니다.</text>
      <rect x="36" y="324" width="86" height="30" rx="10" fill="url(#brandBtn)"/>
      <text x="79" y="344" text-anchor="middle" fill="#FFFFFF" font-size="12" font-weight="600">확인하기</text>

      <g transform="translate(20, 380)">
        <text x="0" y="0" fill="#64748B" font-size="11">최근 7일 매출 추이</text>
        <polyline points="0,68 40,55 80,60 120,38 160,42 200,22 240,28 280,10" stroke="#06B6D4" stroke-width="2.5" fill="none" stroke-linecap="round" stroke-linejoin="round"/>
        <polyline points="0,72 40,72 80,72 120,72 160,72 200,72 240,72 280,72" stroke="#172033" stroke-width="1"/>
      </g>
    </g>
  </g>
</svg>
